<svg width="24" height="25" viewBox="0 0 24 26" fill="none" xmlns="http://www.w3.org/2000/svg">
<path d="M17.5713 11.1429V5.76599C17.5713 4.56512 16.9843 3.41343 15.9395 2.56429C14.8946 1.71514 13.4775 1.2381 11.9999 1.2381C10.5223 1.2381 9.10515 1.71514 8.0603 2.56429C7.01545 3.41343 6.42847 4.56512 6.42847 5.76599V11.1429" stroke="white" stroke-linecap="round" stroke-linejoin="round"/>
<path d="M19.3666 11.1429H4.63322C2.88958 11.1429 1.47607 12.2189 1.47607 13.5462V22.3586C1.47607 23.6859 2.88958 24.7619 4.63322 24.7619H19.3666C21.1102 24.7619 22.5237 23.6859 22.5237 22.3586V13.5462C22.5237 12.2189 21.1102 11.1429 19.3666 11.1429Z" stroke="white" stroke-linecap="round" stroke-linejoin="round"/>
<path d="M12 17C11.7348 17 11.4804 17.1204 11.2929 17.3347C11.1054 17.5491 11 17.8398 11 18.1429C11 18.5657 11.2015 18.9274 11.5 19.1257V21H12.5V19.1257C12.7985 18.9274 13 18.5657 13 18.1429C13 17.8398 12.8946 17.5491 12.7071 17.3347C12.5196 17.1204 12.2652 17 12 17Z" fill="white"/>
</svg>
